<svg id="logo-46" class="gradient" width="123" height="61" viewBox="0 0 123 61" fill="none" xmlns="http://www.w3.org/2000/svg"> <path d="M0.036377 54H11.3891V50.7673H3.4982V35.6727H0.036377V54Z" fill="#333268" class="cneutral"></path> <path d="M18.2113 54.3818C19.5859 54.3818 20.795 54.0763 21.8386 53.4654C22.8907 52.846 23.7095 51.9933 24.295 50.9073C24.8889 49.8127 25.1859 48.5527 25.1859 47.1273C25.1859 45.7103 24.8931 44.4588 24.3077 43.3727C23.7222 42.2782 22.9034 41.4212 21.8513 40.8018C20.8077 40.1824 19.5944 39.8727 18.2113 39.8727C16.8537 39.8727 15.6531 40.1782 14.6095 40.7891C13.5659 41.4 12.7471 42.2527 12.1531 43.3473C11.5592 44.4333 11.2622 45.6933 11.2622 47.1273C11.2622 48.5442 11.5507 49.8 12.1277 50.8945C12.7131 51.9806 13.5277 52.8333 14.5713 53.4527C15.615 54.0721 16.8283 54.3818 18.2113 54.3818ZM18.2113 51.1491C17.1337 51.1491 16.315 50.7885 15.755 50.0673C15.2034 49.3376 14.9277 48.3576 14.9277 47.1273C14.9277 45.9309 15.1907 44.9636 15.7168 44.2254C16.2513 43.4788 17.0828 43.1054 18.2113 43.1054C19.3059 43.1054 20.1289 43.4703 20.6804 44.2C21.2404 44.9297 21.5204 45.9054 21.5204 47.1273C21.5204 48.3067 21.2447 49.2739 20.6931 50.0291C20.1501 50.7757 19.3228 51.1491 18.2113 51.1491Z" fill="#333268" class="cneutral"></path> <path d="M32.0319 54.3818C32.6768 54.3818 33.2707 54.3054 33.8138 54.1527C34.3653 54 34.8659 53.7836 35.3156 53.5036V54.8909C35.3326 55.4 35.201 55.8242 34.921 56.1636C34.6495 56.5115 34.2847 56.7703 33.8265 56.94C33.3683 57.1182 32.8804 57.2073 32.3629 57.2073C31.8792 57.2073 31.4295 57.1012 31.0138 56.8891C30.6065 56.677 30.2925 56.3673 30.0719 55.96L26.8647 57.5127C27.3907 58.4036 28.1416 59.1206 29.1174 59.6636C30.0932 60.2151 31.1665 60.4909 32.3374 60.4909C33.3471 60.4909 34.2847 60.3551 35.1501 60.0836C36.0156 59.8206 36.7453 59.4176 37.3392 58.8745C37.9416 58.3315 38.3532 57.64 38.5738 56.8C38.6501 56.503 38.701 56.2018 38.7265 55.8963C38.7604 55.5994 38.7774 55.2812 38.7774 54.9418V40.2545H35.7483V41.0182C35.2816 40.6533 34.7513 40.3733 34.1574 40.1782C33.5719 39.9745 32.9229 39.8727 32.2101 39.8727C30.895 39.8727 29.7495 40.1867 28.7738 40.8145C27.798 41.4424 27.0386 42.3036 26.4956 43.3982C25.961 44.4842 25.6938 45.7273 25.6938 47.1273C25.6938 48.5018 25.9568 49.7363 26.4829 50.8309C27.0174 51.9254 27.7598 52.7909 28.7101 53.4273C29.6604 54.0636 30.7677 54.3818 32.0319 54.3818ZM32.5919 51.3018C31.8453 51.3018 31.2344 51.1151 30.7592 50.7418C30.2841 50.3685 29.9319 49.8679 29.7029 49.24C29.4738 48.6036 29.3592 47.8994 29.3592 47.1273C29.3592 46.3636 29.478 45.6679 29.7156 45.04C29.9532 44.4036 30.318 43.8988 30.8101 43.5254C31.3107 43.1436 31.9471 42.9527 32.7192 42.9527C33.8053 42.9527 34.5816 43.3388 35.0483 44.1109C35.515 44.8745 35.7483 45.88 35.7483 47.1273C35.7483 48.3745 35.5107 49.3842 35.0356 50.1563C34.5689 50.92 33.7544 51.3018 32.5919 51.3018Z" fill="#333268" class="cneutral"></path> <path d="M46.9998 54.3818C48.3744 54.3818 49.5835 54.0763 50.6271 53.4654C51.6792 52.846 52.498 51.9933 53.0835 50.9073C53.6774 49.8127 53.9744 48.5527 53.9744 47.1273C53.9744 45.7103 53.6816 44.4588 53.0962 43.3727C52.5107 42.2782 51.6919 41.4212 50.6398 40.8018C49.5962 40.1824 48.3828 39.8727 46.9998 39.8727C45.6422 39.8727 44.4416 40.1782 43.398 40.7891C42.3544 41.4 41.5356 42.2527 40.9416 43.3473C40.3477 44.4333 40.0507 45.6933 40.0507 47.1273C40.0507 48.5442 40.3392 49.8 40.9162 50.8945C41.5016 51.9806 42.3162 52.8333 43.3598 53.4527C44.4035 54.0721 45.6168 54.3818 46.9998 54.3818ZM46.9998 51.1491C45.9222 51.1491 45.1034 50.7885 44.5434 50.0673C43.9919 49.3376 43.7162 48.3576 43.7162 47.1273C43.7162 45.9309 43.9792 44.9636 44.5053 44.2254C45.0398 43.4788 45.8713 43.1054 46.9998 43.1054C48.0944 43.1054 48.9174 43.4703 49.4689 44.2C50.0289 44.9297 50.3089 45.9054 50.3089 47.1273C50.3089 48.3067 50.0331 49.2739 49.4816 50.0291C48.9386 50.7757 48.1113 51.1491 46.9998 51.1491Z" fill="#333268" class="cneutral"></path> <path d="M55.5004 38.3454H58.9622V35.2909H55.5004V38.3454ZM55.5004 54H58.9622V40.2545H55.5004V54Z" fill="#333268" class="cneutral"></path> <path d="M61.2251 60.1091H64.7124V53.5036C65.1621 53.7836 65.6585 54 66.2015 54.1527C66.753 54.3054 67.3512 54.3818 67.996 54.3818C69.2603 54.3818 70.3676 54.0636 71.3179 53.4273C72.2682 52.7909 73.0063 51.9254 73.5324 50.8309C74.0669 49.7363 74.3342 48.5018 74.3342 47.1273C74.3342 45.7273 74.0627 44.4842 73.5197 43.3982C72.9851 42.3036 72.23 41.4424 71.2542 40.8145C70.2785 40.1867 69.133 39.8727 67.8179 39.8727C67.1051 39.8727 66.4518 39.9745 65.8578 40.1782C65.2724 40.3733 64.7463 40.6533 64.2797 41.0182V40.2545H61.2251V60.1091ZM67.436 51.3018C66.2821 51.3018 65.4676 50.92 64.9924 50.1563C64.5172 49.3842 64.2797 48.3745 64.2797 47.1273C64.2797 45.88 64.513 44.8745 64.9797 44.1109C65.4548 43.3388 66.2312 42.9527 67.3088 42.9527C68.0809 42.9527 68.713 43.1436 69.2051 43.5254C69.7057 43.8988 70.0748 44.4036 70.3124 45.04C70.55 45.6679 70.6688 46.3636 70.6688 47.1273C70.6688 47.8994 70.5542 48.6036 70.3251 49.24C70.096 49.8679 69.7439 50.3685 69.2688 50.7418C68.7936 51.1151 68.1827 51.3018 67.436 51.3018Z" fill="#333268" class="cneutral"></path> <path d="M80.6056 54.3818C82.4044 54.3818 83.8128 53.9788 84.831 53.1727C85.8492 52.3666 86.3583 51.2594 86.3583 49.8509C86.3583 48.7818 86.0274 47.9376 85.3656 47.3182C84.7122 46.6988 83.6007 46.1854 82.031 45.7782C80.9619 45.5066 80.1644 45.286 79.6383 45.1163C79.1207 44.9467 78.7771 44.7812 78.6074 44.62C78.4462 44.4588 78.3656 44.2594 78.3656 44.0218C78.3656 43.623 78.5565 43.3176 78.9383 43.1054C79.3286 42.8933 79.8419 42.8085 80.4783 42.8509C81.8274 42.9527 82.5656 43.5297 82.6928 44.5818L86.231 43.9454C86.0529 42.6982 85.4419 41.7097 84.3983 40.98C83.3547 40.2418 82.0225 39.8727 80.4019 39.8727C78.7389 39.8727 77.411 40.263 76.4183 41.0436C75.4256 41.8242 74.9292 42.8763 74.9292 44.2C74.9292 45.2521 75.2728 46.0836 75.9601 46.6945C76.6474 47.297 77.831 47.8145 79.511 48.2473C80.5038 48.5103 81.2335 48.7224 81.7001 48.8836C82.1753 49.0448 82.4807 49.2103 82.6165 49.38C82.7522 49.5412 82.8201 49.7576 82.8201 50.0291C82.8201 50.4618 82.6504 50.8012 82.311 51.0473C81.9716 51.2848 81.488 51.4036 80.8601 51.4036C80.0965 51.4036 79.4644 51.2212 78.9638 50.8563C78.4716 50.4915 78.1535 49.9867 78.0092 49.3418L74.471 49.8763C74.7001 51.3103 75.345 52.4218 76.4056 53.2109C77.4747 53.9915 78.8747 54.3818 80.6056 54.3818Z" fill="#333268" class="cneutral"></path> <path d="M92.7442 54.4073C93.7369 54.4073 94.6024 54.2418 95.3406 53.9109C96.0788 53.58 96.6982 53.1388 97.1988 52.5873V54H100.253V40.2545H96.766V47.2291C96.766 48.0776 96.6685 48.7648 96.4733 49.2909C96.2866 49.8085 96.0448 50.203 95.7478 50.4745C95.4509 50.7376 95.1327 50.9157 94.7933 51.0091C94.4539 51.1024 94.1357 51.1491 93.8388 51.1491C93.1006 51.1491 92.5278 50.9836 92.1206 50.6527C91.7218 50.3218 91.4333 49.9103 91.2551 49.4182C91.0769 48.926 90.9709 48.4382 90.9369 47.9545C90.903 47.4624 90.886 47.0594 90.886 46.7454V40.2545H87.3733V47.9673C87.3733 48.1963 87.3903 48.5612 87.4242 49.0618C87.4581 49.5624 87.5557 50.1182 87.7169 50.7291C87.8782 51.3315 88.1454 51.9127 88.5188 52.4727C88.9006 53.0327 89.4309 53.4951 90.1097 53.86C90.7885 54.2248 91.6666 54.4073 92.7442 54.4073Z" fill="#333268" class="cneutral"></path> <path d="M102.258 54H105.745V45.6763C105.745 44.8873 105.961 44.2467 106.394 43.7545C106.835 43.2539 107.416 43.0036 108.138 43.0036C108.893 43.0036 109.483 43.2582 109.907 43.7673C110.339 44.2679 110.556 44.9721 110.556 45.88V54H114.018V45.6763C114.018 44.8873 114.234 44.2467 114.667 43.7545C115.108 43.2539 115.689 43.0036 116.41 43.0036C117.166 43.0036 117.755 43.2582 118.179 43.7673C118.612 44.2679 118.829 44.9721 118.829 45.88V54H122.29V44.9636C122.29 43.4618 121.887 42.2485 121.081 41.3236C120.284 40.3903 119.1 39.9236 117.53 39.9236C116.648 39.9236 115.838 40.1145 115.099 40.4963C114.361 40.8782 113.772 41.4 113.33 42.0618C112.974 41.417 112.465 40.8994 111.803 40.5091C111.141 40.1188 110.318 39.9236 109.334 39.9236C108.502 39.9236 107.739 40.0891 107.043 40.42C106.347 40.7424 105.77 41.1879 105.312 41.7563V40.2545H102.258V54Z" fill="#333268" class="cneutral"></path> <path d="M-6.39719e-07 14.5C6.0374e-08 6.49187 6.49187 1.6959e-06 14.5 2.39599e-06C18.8417 2.77556e-06 22.7378 1.90824 25.3952 4.93177C30.2168 10.345 34.2038 10.0602 38.4379 6.06395C40.5154 4.10244 43.3173 2.9 46.4 2.9C52.8065 2.90001 58 8.0935 58 14.5C58 20.9065 52.8065 26.1 46.4 26.1C43.3173 26.1 40.5154 24.8975 38.4379 22.936C34.2048 18.9407 30.2187 18.655 25.3987 24.0642C22.7412 27.0901 18.8436 29 14.5 29C6.49187 29 -1.33981e-06 22.5081 -6.39719e-07 14.5Z" fill="#F2F5FA"></path> <path d="M-6.39719e-07 14.5C6.0374e-08 6.49187 6.49187 1.6959e-06 14.5 2.39599e-06C18.8417 2.77556e-06 22.7378 1.90824 25.3952 4.93177C30.2168 10.345 34.2038 10.0602 38.4379 6.06395C40.5154 4.10244 43.3173 2.9 46.4 2.9C52.8065 2.90001 58 8.0935 58 14.5C58 20.9065 52.8065 26.1 46.4 26.1C43.3173 26.1 40.5154 24.8975 38.4379 22.936C34.2048 18.9407 30.2187 18.655 25.3987 24.0642C22.7412 27.0901 18.8436 29 14.5 29C6.49187 29 -1.33981e-06 22.5081 -6.39719e-07 14.5Z" fill="url(#paint0_linear_1422_596)"></path> <path d="M-6.39719e-07 14.5C6.0374e-08 6.49187 6.49187 1.6959e-06 14.5 2.39599e-06C18.8417 2.77556e-06 22.7378 1.90824 25.3952 4.93177C30.2168 10.345 34.2038 10.0602 38.4379 6.06395C40.5154 4.10244 43.3173 2.9 46.4 2.9C52.8065 2.90001 58 8.0935 58 14.5C58 20.9065 52.8065 26.1 46.4 26.1C43.3173 26.1 40.5154 24.8975 38.4379 22.936C34.2048 18.9407 30.2187 18.655 25.3987 24.0642C22.7412 27.0901 18.8436 29 14.5 29C6.49187 29 -1.33981e-06 22.5081 -6.39719e-07 14.5Z" fill="url(#paint1_linear_1422_596)"></path> <path d="M-6.39719e-07 14.5C6.0374e-08 6.49187 6.49187 1.6959e-06 14.5 2.39599e-06C18.8417 2.77556e-06 22.7378 1.90824 25.3952 4.93177C30.2168 10.345 34.2038 10.0602 38.4379 6.06395C40.5154 4.10244 43.3173 2.9 46.4 2.9C52.8065 2.90001 58 8.0935 58 14.5C58 20.9065 52.8065 26.1 46.4 26.1C43.3173 26.1 40.5154 24.8975 38.4379 22.936C34.2048 18.9407 30.2187 18.655 25.3987 24.0642C22.7412 27.0901 18.8436 29 14.5 29C6.49187 29 -1.33981e-06 22.5081 -6.39719e-07 14.5Z" fill="url(#paint2_radial_1422_596)"></path> <path d="M-6.39719e-07 14.5C6.0374e-08 6.49187 6.49187 1.6959e-06 14.5 2.39599e-06C18.8417 2.77556e-06 22.7378 1.90824 25.3952 4.93177C30.2168 10.345 34.2038 10.0602 38.4379 6.06395C40.5154 4.10244 43.3173 2.9 46.4 2.9C52.8065 2.90001 58 8.0935 58 14.5C58 20.9065 52.8065 26.1 46.4 26.1C43.3173 26.1 40.5154 24.8975 38.4379 22.936C34.2048 18.9407 30.2187 18.655 25.3987 24.0642C22.7412 27.0901 18.8436 29 14.5 29C6.49187 29 -1.33981e-06 22.5081 -6.39719e-07 14.5Z" fill="url(#paint3_radial_1422_596)"></path> <path d="M-6.39719e-07 14.5C6.0374e-08 6.49187 6.49187 1.6959e-06 14.5 2.39599e-06C18.8417 2.77556e-06 22.7378 1.90824 25.3952 4.93177C30.2168 10.345 34.2038 10.0602 38.4379 6.06395C40.5154 4.10244 43.3173 2.9 46.4 2.9C52.8065 2.90001 58 8.0935 58 14.5C58 20.9065 52.8065 26.1 46.4 26.1C43.3173 26.1 40.5154 24.8975 38.4379 22.936C34.2048 18.9407 30.2187 18.655 25.3987 24.0642C22.7412 27.0901 18.8436 29 14.5 29C6.49187 29 -1.33981e-06 22.5081 -6.39719e-07 14.5Z" fill="url(#paint4_radial_1422_596)"></path> <defs> <linearGradient id="paint0_linear_1422_596" x1="43.6961" y1="21.7069" x2="10.3036" y2="-4.24328" gradientUnits="userSpaceOnUse"> <stop class="ccustom" stop-color="#FF557E"></stop> <stop class="ccompli1" offset="0.841052" stop-color="#FF5555" stop-opacity="0"></stop> </linearGradient> <linearGradient id="paint1_linear_1422_596" x1="14.5023" y1="27.0553" x2="23.4238" y2="-3.84997" gradientUnits="userSpaceOnUse"> <stop class="ccompli1" stop-color="#58CCDC"></stop> <stop class="ccompli1" offset="1" stop-color="#58CCDC" stop-opacity="0"></stop> </linearGradient> <radialGradient id="paint2_radial_1422_596" cx="0" cy="0" r="1" gradientUnits="userSpaceOnUse" gradientTransform="translate(45.4879 35.041) rotate(-122.928) scale(37.051 30.3393)"> <stop class="ccompli2" stop-color="#8263DB"></stop> <stop offset="0.568731" stop-color="#8172DA" stop-opacity="0.26"></stop> <stop class="ccompli2" offset="1" stop-color="#8172DA" stop-opacity="0"></stop> </radialGradient> <radialGradient id="paint3_radial_1422_596" cx="0" cy="0" r="1" gradientUnits="userSpaceOnUse" gradientTransform="translate(18.3021 -4.19503) rotate(77.6745) scale(24.9567 39.2264)"> <stop class="ccompli1" stop-color="#41D1B7"></stop> <stop class="ccompli1" offset="0.492704" stop-color="#41D1B7" stop-opacity="0.35"></stop> <stop class="ccompli1" offset="1" stop-color="#41D1B7" stop-opacity="0"></stop> </radialGradient> <radialGradient id="paint4_radial_1422_596" cx="0" cy="0" r="1" gradientUnits="userSpaceOnUse" gradientTransform="translate(59.6446 -10.7446) rotate(125.113) scale(27.1121 57.4261)"> <stop class="ccompli2" stop-color="#FFEC45"></stop> <stop class="ccompli2" offset="0.549191" stop-color="#FFEC45" stop-opacity="0.3"></stop> <stop class="ccompli2" offset="0.961144" stop-color="#FFEC45" stop-opacity="0"></stop> </radialGradient> </defs> </svg>
